<svg xmlns="http://www.w3.org/2000/svg" viewBox="0 0 88 88"><title>Artboard-19</title><g id="Money"><path d="M80,21v7.2a15.7358,15.7358,0,0,1,4,1.01V15a1.0029,1.0029,0,0,0-1-1H9a1.0029,1.0029,0,0,0-1,1v3H77A3.0088,3.0088,0,0,1,80,21Z" style="fill:#202021"/><path d="M63.06,27H16.94A8.9943,8.9943,0,0,1,9,34.94V53.06A8.9943,8.9943,0,0,1,16.94,61H63.05A8.9179,8.9179,0,0,1,66,55.29V34c0-.1.01-.2.02-.3a3.437,3.437,0,0,1,.14-.86A9.0867,9.0867,0,0,1,63.06,27ZM21,47a3,3,0,1,1,3-3A3.0088,3.0088,0,0,1,21,47Zm19,9A12,12,0,1,1,52,44,12.01,12.01,0,0,1,40,56Zm19-9a3,3,0,1,1,3-3A3.0088,3.0088,0,0,1,59,47Z" style="fill:#202021"/><path d="M41,48a1.0009,1.0009,0,0,0,1-1v-.5586a.9982.9982,0,0,0-.6836-.9487L41,45.3873Z" style="fill:#202021"/><circle cx="21" cy="44" r="1" style="fill:#202021"/><path d="M77,28c.33,0,.67.01,1,.02V21a1.0029,1.0029,0,0,0-1-1H3a1.0029,1.0029,0,0,0-1,1V67a1.0029,1.0029,0,0,0,1,1H66V58.38A7.0325,7.0325,0,0,0,65,62a1.0029,1.0029,0,0,1-1,1H16a1.0029,1.0029,0,0,1-1-1,7.0077,7.0077,0,0,0-7-7,1.0029,1.0029,0,0,1-1-1V34a1.0029,1.0029,0,0,1,1-1,7.0077,7.0077,0,0,0,7-7,1.0029,1.0029,0,0,1,1-1H64a1.0029,1.0029,0,0,1,1,1,7,7,0,0,0,2.18,5.06c1.74-1.92,5.22-2.89,8.82-3.04C76.33,28.01,76.67,28,77,28Z" style="fill:#202021"/><path d="M38,41v.5586a.9982.9982,0,0,0,.6836.9487L39,42.6127V40A1.0009,1.0009,0,0,0,38,41Z" style="fill:#202021"/><circle cx="59" cy="44" r="1" style="fill:#202021"/><path d="M40,34A10,10,0,1,0,50,44,10.0114,10.0114,0,0,0,40,34Zm1.9492,9.5952A2.9973,2.9973,0,0,1,44,46.4414V47a3.0033,3.0033,0,0,1-3,3v1a1,1,0,0,1-2,0V50a3.0033,3.0033,0,0,1-3-3,1,1,0,0,1,2,0,1.0009,1.0009,0,0,0,1,1V44.721l-.9492-.3162A2.9973,2.9973,0,0,1,36,41.5586V41a3.0033,3.0033,0,0,1,3-3V37a1,1,0,0,1,2,0v1a3.0033,3.0033,0,0,1,3,3,1,1,0,0,1-2,0,1.0009,1.0009,0,0,0-1-1v3.279Z" style="fill:#202021"/><ellipse cx="77" cy="34" rx="9" ry="4" style="fill:#202021"/><path d="M68,37.7V40c0,2.63,4.53,4,9,4s9-1.37,9-4V37.7c-2.1,1.57-5.56,2.3-9,2.3S70.1,39.27,68,37.7Z" style="fill:#202021"/><path d="M68,43.7V46c0,2.63,4.53,4,9,4s9-1.37,9-4V43.7c-2.1,1.57-5.56,2.3-9,2.3S70.1,45.27,68,43.7Z" style="fill:#202021"/><path d="M68,49.7V52c0,2.63,4.53,4,9,4s9-1.37,9-4V49.7c-2.1,1.57-5.56,2.3-9,2.3S70.1,51.27,68,49.7Z" style="fill:#202021"/><path d="M68,55.7V58c0,2.63,4.53,4,9,4s9-1.37,9-4V55.7c-2.1,1.57-5.56,2.3-9,2.3S70.1,57.27,68,55.7Z" style="fill:#202021"/><path d="M68,61.7V64c0,2.63,4.53,4,9,4s9-1.37,9-4V61.7c-2.1,1.57-5.56,2.3-9,2.3S70.1,63.27,68,61.7Z" style="fill:#202021"/><path d="M68,67.7V70c0,2.63,4.53,4,9,4s9-1.37,9-4V67.7c-2.1,1.57-5.56,2.3-9,2.3S70.1,69.27,68,67.7Z" style="fill:#202021"/></g></svg>