<?xml version="1.0" encoding="utf-8"?>
<!-- Generator: Adobe Illustrator 26.0.1, SVG Export Plug-In . SVG Version: 6.00 Build 0)  -->
<svg version="1.1" id="Layer_1" xmlns="http://www.w3.org/2000/svg" xmlns:xlink="http://www.w3.org/1999/xlink" x="0px" y="0px"
	 viewBox="0 0 377.9 148.4" style="enable-background:new 0 0 377.9 148.4;" xml:space="preserve">
<style type="text/css">
	.st0{fill:#1E224E;}
	.st1{fill-rule:evenodd;clip-rule:evenodd;fill:#5DABA0;}
	.st2{fill-rule:evenodd;clip-rule:evenodd;fill:#1E224E;}
	.st3{fill-rule:evenodd;clip-rule:evenodd;fill:#FFFFFF;}
	.st4{fill-rule:evenodd;clip-rule:evenodd;fill:#F7DE77;}
</style>
<g>
	<g>
		<path class="st0" d="M179.7,4.3c4.6,0,8,1,10.1,3c2.1,2,3.2,4.7,3.2,8.2c0,1.6-0.2,3.1-0.7,4.5c-0.5,1.4-1.2,2.7-2.3,3.8
			c-1.1,1.1-2.5,2-4.3,2.6c-1.8,0.6-4,1-6.6,1h-3.3v12.7h-7.6V4.3H179.7z M179.3,10.5h-3.4v10.6h2.5c1.4,0,2.6-0.2,3.7-0.6
			s1.8-1,2.4-1.8s0.9-1.8,0.9-3.1c0-1.8-0.5-3.1-1.5-3.9C182.9,11,181.4,10.5,179.3,10.5z"/>
		<path class="st0" d="M210.4,12.2c2.5,0,4.7,0.5,6.5,1.5c1.8,1,3.2,2.4,4.2,4.2c1,1.8,1.5,4.1,1.5,6.7v3.6H205
			c0.1,2.1,0.7,3.8,1.9,4.9c1.2,1.2,2.8,1.8,4.9,1.8c1.7,0,3.3-0.2,4.8-0.5c1.5-0.4,2.9-0.9,4.5-1.6v5.8c-1.4,0.7-2.8,1.2-4.2,1.5
			c-1.5,0.3-3.3,0.5-5.4,0.5c-2.7,0-5.2-0.5-7.3-1.5c-2.1-1-3.8-2.6-5-4.6c-1.2-2.1-1.8-4.7-1.8-7.8c0-3.2,0.5-5.9,1.6-8
			c1.1-2.1,2.6-3.7,4.5-4.8C205.6,12.8,207.8,12.2,210.4,12.2z M210.5,17.5c-1.5,0-2.7,0.5-3.6,1.4s-1.5,2.4-1.6,4.4h10.5
			c0-1.1-0.2-2.1-0.6-3c-0.4-0.9-1-1.5-1.7-2.1C212.6,17.8,211.6,17.5,210.5,17.5z"/>
		<path class="st0" d="M244,12.2c0.4,0,0.8,0,1.3,0.1c0.5,0,0.9,0.1,1.2,0.2l-0.6,7c-0.2-0.1-0.6-0.1-1-0.2c-0.4,0-0.8-0.1-1.2-0.1
			c-1,0-1.9,0.1-2.8,0.4c-0.9,0.2-1.7,0.6-2.4,1.2c-0.7,0.5-1.3,1.3-1.7,2.2c-0.4,0.9-0.6,2-0.6,3.3v13.9h-7.5V12.7h5.6l1.1,4.6h0.4
			c0.5-0.9,1.2-1.8,2-2.6c0.8-0.8,1.7-1.4,2.8-1.9C241.6,12.5,242.8,12.2,244,12.2z"/>
		<path class="st0" d="M270.5,31.9c0,1.9-0.4,3.4-1.3,4.7c-0.9,1.3-2.2,2.2-3.9,2.9c-1.7,0.7-3.9,1-6.5,1c-1.9,0-3.5-0.1-4.9-0.4
			c-1.4-0.2-2.7-0.7-4.1-1.2v-6.2c1.5,0.7,3.1,1.2,4.8,1.6c1.7,0.4,3.2,0.6,4.5,0.6c1.5,0,2.5-0.2,3.1-0.6c0.6-0.4,0.9-1,0.9-1.7
			c0-0.5-0.1-0.9-0.4-1.2s-0.8-0.8-1.6-1.2s-2.1-1.1-3.9-1.8c-1.7-0.7-3.1-1.4-4.2-2.2c-1.1-0.7-1.9-1.6-2.4-2.6
			c-0.5-1-0.8-2.3-0.8-3.8c0-2.5,1-4.4,2.9-5.7c2-1.3,4.6-1.9,7.9-1.9c1.7,0,3.3,0.2,4.9,0.5c1.5,0.3,3.1,0.9,4.8,1.6l-2.2,5.4
			c-1.4-0.6-2.6-1.1-3.8-1.4c-1.2-0.4-2.4-0.6-3.7-0.6c-1.1,0-1.9,0.1-2.5,0.4s-0.8,0.7-0.8,1.3c0,0.4,0.1,0.8,0.4,1.2
			s0.8,0.7,1.7,1.1s2,0.9,3.6,1.6c1.5,0.6,2.9,1.3,4,2c1.1,0.7,2,1.5,2.6,2.6C270.2,29,270.5,30.3,270.5,31.9z"/>
		<path class="st0" d="M301.2,26.4c0,2.3-0.3,4.3-0.9,6.1c-0.6,1.8-1.5,3.2-2.7,4.5c-1.2,1.2-2.6,2.1-4.2,2.7s-3.5,0.9-5.5,0.9
			c-1.9,0-3.7-0.3-5.3-0.9c-1.6-0.6-3-1.5-4.2-2.7c-1.2-1.2-2.1-2.7-2.7-4.5c-0.6-1.8-1-3.8-1-6.1c0-3,0.5-5.6,1.6-7.7
			c1.1-2.1,2.6-3.7,4.6-4.8c2-1.1,4.4-1.6,7.1-1.6c2.6,0,4.8,0.5,6.8,1.6c2,1.1,3.5,2.7,4.7,4.8C300.6,20.8,301.2,23.3,301.2,26.4z
			 M282.3,26.4c0,1.8,0.2,3.3,0.6,4.5c0.4,1.2,1,2.1,1.8,2.8c0.8,0.6,1.9,0.9,3.3,0.9c1.3,0,2.4-0.3,3.2-0.9
			c0.8-0.6,1.4-1.5,1.8-2.8c0.4-1.2,0.6-2.7,0.6-4.5c0-1.8-0.2-3.3-0.6-4.5c-0.4-1.2-1-2.1-1.8-2.7c-0.8-0.6-1.9-0.9-3.3-0.9
			c-2,0-3.4,0.7-4.3,2C282.7,21.6,282.3,23.6,282.3,26.4z"/>
		<path class="st0" d="M322.8,12.2c2.9,0,5.3,0.8,7,2.4c1.8,1.6,2.7,4.1,2.7,7.6v17.8h-7.5v-16c0-2-0.4-3.4-1.1-4.4
			c-0.7-1-1.8-1.5-3.3-1.5c-2.3,0-3.8,0.8-4.7,2.3c-0.8,1.5-1.2,3.8-1.2,6.7v12.9h-7.5V12.7h5.7l1,3.5h0.4c0.6-0.9,1.3-1.7,2.2-2.3
			c0.9-0.6,1.8-1,2.9-1.3C320.6,12.4,321.7,12.2,322.8,12.2z"/>
		<path class="st0" d="M351.4,12.2c3.7,0,6.5,0.8,8.4,2.4c2,1.6,2.9,4,2.9,7.3v18.2h-5.2l-1.4-3.7h-0.2c-0.8,1-1.6,1.8-2.4,2.4
			c-0.8,0.6-1.8,1.1-2.8,1.4c-1.1,0.3-2.3,0.4-3.9,0.4c-1.6,0-3.1-0.3-4.3-0.9s-2.3-1.6-3-2.8c-0.7-1.3-1.1-2.9-1.1-4.9
			c0-2.9,1-5,3.1-6.4c2-1.4,5.1-2.1,9.2-2.3l4.7-0.1v-1.2c0-1.4-0.4-2.5-1.1-3.2c-0.8-0.7-1.8-1-3.1-1c-1.3,0-2.6,0.2-3.9,0.6
			c-1.3,0.4-2.5,0.8-3.8,1.4l-2.5-5c1.5-0.8,3.1-1.4,4.9-1.8C347.6,12.4,349.5,12.2,351.4,12.2z M355.4,27.4l-2.9,0.1
			c-2.4,0.1-4.1,0.5-5,1.3s-1.4,1.8-1.4,3.2c0,1.1,0.3,2,1,2.4c0.7,0.5,1.5,0.7,2.6,0.7c1.6,0,2.9-0.5,4-1.4c1.1-0.9,1.6-2.3,1.6-4
			V27.4z"/>
		<path class="st0" d="M377.9,40.1h-7.5V2h7.5V40.1z"/>
		<path class="st0" d="M188.9,90.1h-20.6V54.4h20.6v6.2h-13v7.8H188v6.2h-12.1v9.2h13V90.1z"/>
		<path class="st0" d="M201.3,76.2l-8.8-13.4h8.5l5.3,8.7l5.4-8.7h8.5l-8.9,13.4l9.3,14H212l-5.7-9.4l-5.8,9.4h-8.5L201.3,76.2z"/>
		<path class="st0" d="M239.9,62.3c3.1,0,5.6,1.2,7.5,3.6c1.9,2.4,2.8,5.9,2.8,10.5c0,3.1-0.4,5.7-1.3,7.8s-2.1,3.7-3.7,4.8
			c-1.6,1.1-3.4,1.6-5.5,1.6c-1.3,0-2.5-0.2-3.4-0.5c-0.9-0.3-1.8-0.8-2.4-1.3s-1.2-1.1-1.7-1.7h-0.4c0.1,0.7,0.2,1.3,0.3,2
			c0.1,0.7,0.1,1.4,0.1,2v11h-7.5V62.8h6.1l1.1,3.5h0.3c0.5-0.7,1.1-1.4,1.8-2c0.7-0.6,1.5-1.1,2.5-1.5
			C237.4,62.5,238.6,62.3,239.9,62.3z M237.5,68.2c-1.3,0-2.3,0.3-3.1,0.8c-0.8,0.5-1.3,1.3-1.7,2.4c-0.4,1.1-0.5,2.4-0.6,4.1v0.8
			c0,1.8,0.2,3.3,0.5,4.5c0.3,1.2,0.9,2.2,1.7,2.8c0.8,0.6,1.9,1,3.3,1c1.1,0,2.1-0.3,2.8-1c0.7-0.6,1.3-1.6,1.6-2.8
			c0.4-1.2,0.6-2.7,0.6-4.5c0-2.7-0.4-4.7-1.2-6S239.2,68.2,237.5,68.2z"/>
		<path class="st0" d="M267.6,62.3c2.5,0,4.7,0.5,6.5,1.5c1.8,1,3.2,2.4,4.2,4.2c1,1.8,1.5,4.1,1.5,6.7v3.6h-17.6
			c0.1,2.1,0.7,3.8,1.9,5c1.2,1.2,2.8,1.8,4.9,1.8c1.7,0,3.3-0.2,4.8-0.5c1.5-0.4,2.9-0.9,4.5-1.6v5.8c-1.4,0.7-2.8,1.2-4.2,1.5
			s-3.3,0.5-5.4,0.5c-2.7,0-5.2-0.5-7.3-1.5c-2.1-1-3.8-2.5-5-4.6c-1.2-2.1-1.8-4.7-1.8-7.8c0-3.2,0.5-5.9,1.6-8
			c1.1-2.1,2.6-3.7,4.5-4.8C262.8,62.8,265.1,62.3,267.6,62.3z M267.7,67.6c-1.5,0-2.7,0.5-3.6,1.4s-1.5,2.4-1.6,4.4h10.5
			c0-1.1-0.2-2.1-0.6-3c-0.4-0.9-1-1.5-1.7-2.1C269.8,67.8,268.8,67.6,267.7,67.6z"/>
		<path class="st0" d="M301.5,62.3c2.9,0,5.3,0.8,7,2.4c1.8,1.6,2.7,4.1,2.7,7.6v17.8h-7.5v-16c0-2-0.4-3.4-1.1-4.4
			c-0.7-1-1.8-1.5-3.3-1.5c-2.3,0-3.8,0.8-4.7,2.3c-0.8,1.5-1.2,3.8-1.2,6.7v12.9h-7.5V62.8h5.7l1,3.5h0.4c0.6-0.9,1.3-1.7,2.2-2.3
			c0.9-0.6,1.8-1,2.9-1.3C299.2,62.4,300.3,62.3,301.5,62.3z"/>
		<path class="st0" d="M337.9,82c0,1.9-0.4,3.4-1.3,4.7s-2.2,2.2-3.9,2.9s-3.9,1-6.5,1c-1.9,0-3.5-0.1-4.9-0.4
			c-1.4-0.2-2.7-0.7-4.1-1.2v-6.2c1.5,0.7,3.1,1.2,4.8,1.6s3.2,0.6,4.5,0.6c1.5,0,2.5-0.2,3.1-0.6c0.6-0.4,0.9-1,0.9-1.7
			c0-0.5-0.1-0.9-0.4-1.2c-0.3-0.4-0.8-0.8-1.6-1.2c-0.8-0.5-2.1-1.1-3.9-1.8c-1.7-0.7-3.1-1.4-4.2-2.2c-1.1-0.7-1.9-1.6-2.4-2.6
			c-0.5-1-0.8-2.3-0.8-3.8c0-2.5,1-4.4,2.9-5.7c2-1.3,4.6-1.9,7.9-1.9c1.7,0,3.3,0.2,4.9,0.5c1.5,0.3,3.1,0.9,4.8,1.6l-2.2,5.4
			c-1.4-0.6-2.6-1.1-3.8-1.4c-1.2-0.4-2.4-0.6-3.7-0.6c-1.1,0-1.9,0.1-2.5,0.4s-0.8,0.7-0.8,1.3c0,0.4,0.1,0.8,0.4,1.2
			s0.8,0.7,1.7,1.1s2,0.9,3.6,1.6c1.5,0.6,2.9,1.3,4,2c1.1,0.7,2,1.5,2.6,2.6C337.6,79.1,337.9,80.4,337.9,82z"/>
		<path class="st0" d="M355,62.3c2.5,0,4.7,0.5,6.5,1.5c1.8,1,3.2,2.4,4.2,4.2c1,1.8,1.5,4.1,1.5,6.7v3.6h-17.6
			c0.1,2.1,0.7,3.8,1.9,5c1.2,1.2,2.8,1.8,4.9,1.8c1.7,0,3.3-0.2,4.8-0.5c1.5-0.4,2.9-0.9,4.5-1.6v5.8c-1.4,0.7-2.8,1.2-4.2,1.5
			s-3.3,0.5-5.4,0.5c-2.7,0-5.2-0.5-7.3-1.5c-2.1-1-3.8-2.5-5-4.6c-1.2-2.1-1.8-4.7-1.8-7.8c0-3.2,0.5-5.9,1.6-8
			c1.1-2.1,2.6-3.7,4.5-4.8C350.1,62.8,352.4,62.3,355,62.3z M355,67.6c-1.5,0-2.7,0.5-3.6,1.4s-1.5,2.4-1.6,4.4h10.5
			c0-1.1-0.2-2.1-0.6-3c-0.4-0.9-1-1.5-1.7-2.1C357.2,67.8,356.2,67.6,355,67.6z"/>
		<path class="st0" d="M182.1,140.2h-7.6v-29.4h-9.7v-6.3h27v6.3h-9.7V140.2z"/>
		<path class="st0" d="M211.9,112.3c0.4,0,0.8,0,1.3,0.1c0.5,0,0.9,0.1,1.2,0.2l-0.6,7c-0.2-0.1-0.6-0.1-1-0.2
			c-0.4,0-0.8-0.1-1.2-0.1c-1,0-1.9,0.1-2.8,0.4c-0.9,0.2-1.7,0.6-2.4,1.2c-0.7,0.5-1.3,1.3-1.7,2.2c-0.4,0.9-0.6,2-0.6,3.3v13.9
			h-7.5v-27.3h5.6l1.1,4.6h0.4c0.5-0.9,1.2-1.8,2-2.6c0.8-0.8,1.7-1.4,2.8-1.9C209.6,112.6,210.7,112.3,211.9,112.3z"/>
		<path class="st0" d="M230.6,112.3c3.7,0,6.5,0.8,8.4,2.4c2,1.6,2.9,4,2.9,7.3v18.2h-5.2l-1.4-3.7h-0.2c-0.8,1-1.6,1.8-2.4,2.4
			c-0.8,0.6-1.8,1.1-2.8,1.4c-1.1,0.3-2.3,0.4-3.9,0.4c-1.6,0-3.1-0.3-4.3-0.9c-1.3-0.6-2.3-1.6-3-2.8c-0.7-1.3-1.1-2.9-1.1-4.9
			c0-2.9,1-5,3.1-6.4c2-1.4,5.1-2.1,9.2-2.3l4.7-0.1V122c0-1.4-0.4-2.5-1.1-3.2c-0.8-0.7-1.8-1-3.1-1c-1.3,0-2.6,0.2-3.9,0.6
			s-2.5,0.8-3.8,1.4l-2.5-5c1.5-0.8,3.1-1.4,4.9-1.8C226.8,112.5,228.7,112.3,230.6,112.3z M234.6,127.5l-2.9,0.1
			c-2.4,0.1-4.1,0.5-5,1.3c-0.9,0.8-1.4,1.8-1.4,3.2c0,1.1,0.3,2,1,2.4c0.7,0.5,1.5,0.7,2.6,0.7c1.6,0,2.9-0.5,4-1.4
			c1.1-0.9,1.6-2.3,1.6-4V127.5z"/>
		<path class="st0" d="M260.8,140.7c-2.7,0-5-0.5-6.9-1.5c-1.9-1-3.4-2.5-4.4-4.6c-1-2.1-1.5-4.7-1.5-7.9c0-3.3,0.6-6.1,1.7-8.2
			c1.1-2.1,2.7-3.7,4.7-4.7c2-1,4.3-1.5,7-1.5c1.9,0,3.5,0.2,4.9,0.5c1.4,0.4,2.6,0.8,3.6,1.3l-2.2,5.8c-1.2-0.5-2.3-0.9-3.3-1.2
			c-1-0.3-2-0.5-3-0.5c-1.3,0-2.4,0.3-3.3,0.9c-0.9,0.6-1.5,1.5-1.9,2.8c-0.4,1.2-0.6,2.8-0.6,4.6c0,1.8,0.2,3.3,0.7,4.5
			c0.5,1.2,1.1,2.1,2,2.7c0.9,0.6,1.9,0.9,3.2,0.9c1.5,0,2.9-0.2,4.1-0.6c1.2-0.4,2.4-1,3.5-1.7v6.4c-1.1,0.7-2.3,1.2-3.6,1.6
			C264.2,140.5,262.7,140.7,260.8,140.7z"/>
		<path class="st0" d="M282.9,102.1v17c0,1,0,2.1-0.1,3.1s-0.2,2.1-0.3,3.1h0.1c0.5-0.7,1-1.4,1.6-2.1c0.5-0.7,1.1-1.4,1.7-2
			l7.7-8.3h8.4L291,124.7l11.5,15.5h-8.6l-7.9-11.1l-3.2,2.6v8.5h-7.5v-38H282.9z"/>
		<path class="st0" d="M317.7,112.3c2.5,0,4.7,0.5,6.5,1.5c1.8,1,3.2,2.4,4.2,4.2c1,1.8,1.5,4.1,1.5,6.7v3.6h-17.6
			c0.1,2.1,0.7,3.8,1.9,5c1.2,1.2,2.8,1.8,4.9,1.8c1.7,0,3.3-0.2,4.8-0.5c1.5-0.4,2.9-0.9,4.5-1.6v5.8c-1.4,0.7-2.8,1.2-4.2,1.5
			s-3.3,0.5-5.4,0.5c-2.7,0-5.2-0.5-7.3-1.5c-2.1-1-3.8-2.5-5-4.6c-1.2-2.1-1.8-4.7-1.8-7.8c0-3.2,0.5-5.9,1.6-8
			c1.1-2.1,2.6-3.7,4.5-4.8C312.9,112.9,315.1,112.3,317.7,112.3z M317.8,117.6c-1.5,0-2.7,0.5-3.6,1.4s-1.5,2.4-1.6,4.4H323
			c0-1.1-0.2-2.1-0.6-3c-0.4-0.9-1-1.5-1.7-2.1S318.9,117.6,317.8,117.6z"/>
		<path class="st0" d="M351.3,112.3c0.4,0,0.8,0,1.3,0.1c0.5,0,0.9,0.1,1.2,0.2l-0.6,7c-0.2-0.1-0.6-0.1-1-0.2
			c-0.4,0-0.8-0.1-1.2-0.1c-1,0-1.9,0.1-2.8,0.4c-0.9,0.2-1.7,0.6-2.4,1.2c-0.7,0.5-1.3,1.3-1.7,2.2c-0.4,0.9-0.6,2-0.6,3.3v13.9
			H336v-27.3h5.6l1.1,4.6h0.4c0.5-0.9,1.2-1.8,2-2.6c0.8-0.8,1.7-1.4,2.8-1.9C348.9,112.6,350.1,112.3,351.3,112.3z"/>
	</g>
	<g>
		<path class="st1" d="M55.2,125c25,0,45.4-20.4,45.4-45.4c0-25-20.4-45.4-45.4-45.4S9.8,54.6,9.8,79.6C9.8,104.6,30.2,125,55.2,125
			z"/>
		<path class="st2" d="M57.8,44.9c-10,0-19.1,4.1-25.6,10.6c-6.6,6.6-10.6,15.6-10.6,25.6c0,10,4.1,19.1,10.6,25.6
			c6.6,6.6,15.6,10.6,25.6,10.6c10,0,19.1-4.1,25.6-10.6C89.9,100.2,94,91.2,94,81.2c0-10-4.1-19.1-10.6-25.6
			C76.8,49,67.8,44.9,57.8,44.9L57.8,44.9z M16.9,40.3c10.5-10.5,24.9-16.9,40.8-16.9c15.9,0,30.4,6.5,40.8,16.9
			c10.5,10.5,16.9,24.9,16.9,40.8c0,15.9-6.5,30.4-16.9,40.8c-10.5,10.5-24.9,16.9-40.8,16.9c-15.9,0-30.4-6.5-40.8-16.9
			C6.5,111.6,0,97.1,0,81.2C0,65.2,6.5,50.8,16.9,40.3z"/>
		<g>
			<path class="st3" d="M47.8,63.1c0-3.3,2.7-6,6-6c3.3,0,6,2.7,6,6l0.1,42c0,3.3-2.7,6-6,6c-3.3,0-6-2.7-6-6L47.8,63.1z"/>
			<path class="st3" d="M65.3,59.4c0-3.3,2.7-6,6-6c3.3,0,6,2.7,6,6l0.1,45.7c0,3.3-2.7,6-6,6c-3.3,0-6-2.7-6-6L65.3,59.4z"/>
			<path class="st3" d="M31.1,72.6c0-3.3,2.7-6,6-6c3.3,0,6,2.7,6,6l0.1,32.4c0,3.3-2.7,6-6,6c-3.3,0-6-2.7-6-6L31.1,72.6z"/>
		</g>
		<path class="st4" d="M61.6,45.3l32.1-32.1l32.1,32.1h-19.7c-0.7,24.3-1,50.4-23.6,66.3c-18.6,13.1-53.5,7.7-58.6-17.4
			c15.3,20.3,47.7,16.1,56.2-9.5c4-11.8,2.7-26.1,1.6-39.3H61.6z"/>
	</g>
	<path class="st2" d="M141.9,148.4L141.9,148.4c-1.4,0-2.6-1.1-2.6-2.6V2.6c0-1.4,1.1-2.6,2.6-2.6h0c1.4,0,2.6,1.1,2.6,2.6v143.2
		C144.4,147.2,143.3,148.4,141.9,148.4z"/>
</g>
</svg>
