<svg xmlns="http://www.w3.org/2000/svg" viewBox="0 0 88 88"><title>Artboard-33</title><g id="Atm"><rect x="26" y="64" width="38" height="8" rx="1" ry="1" style="fill:#202021"/><path d="M29.79,62H59V56.49A11.1084,11.1084,0,0,0,62.81,50H41.65A10.0357,10.0357,0,0,0,34,45.05V34a5,5,0,0,0-10,0V51.24a11.046,11.046,0,0,0,2.72,7.25Z" style="fill:#202021"/><path d="M86,6H2A1.0029,1.0029,0,0,0,1,7V25a1.0029,1.0029,0,0,0,1,1H12V20H10a4,4,0,0,1,0-8H78a4,4,0,0,1,0,8H76v6H86a1.0029,1.0029,0,0,0,1-1V7A1.0029,1.0029,0,0,0,86,6Z" style="fill:#202021"/><path d="M8,16a2.0059,2.0059,0,0,0,2,2h2V14H10A2.0059,2.0059,0,0,0,8,16Z" style="fill:#202021"/><path d="M80,16a2.0059,2.0059,0,0,0-2-2H76v4h2A2.0059,2.0059,0,0,0,80,16Z" style="fill:#202021"/><path d="M46,32.68a1.3116,1.3116,0,0,0-.91-1.26L45,31.39v2.57A1.32,1.32,0,0,0,46,32.68Z" style="fill:#202021"/><path d="M43,26.04a1.3231,1.3231,0,0,0-.09,2.54l.09.03Z" style="fill:#202021"/><path d="M29,27a7.0077,7.0077,0,0,1,7,7v7H62.08A6.0376,6.0376,0,0,1,67,36.08V23.92A6.0376,6.0376,0,0,1,62.08,19H25.92A6.0376,6.0376,0,0,1,21,23.92V36.08a6.3856,6.3856,0,0,1,1,.27V34A7.0077,7.0077,0,0,1,29,27Zm11,5a1,1,0,0,1,2,0v.68a1.32,1.32,0,0,0,1,1.28V30.72l-.73-.24A3.3236,3.3236,0,0,1,43,24.02V23a1,1,0,0,1,2,0v1.02a3.3219,3.3219,0,0,1,3,3.3V28a1,1,0,0,1-2,0v-.68a1.32,1.32,0,0,0-1-1.28v3.24l.73.24A3.3236,3.3236,0,0,1,45,35.98V37a1,1,0,0,1-2,0V35.98a3.3219,3.3219,0,0,1-3-3.3Z" style="fill:#202021"/><path d="M14,47a1.0029,1.0029,0,0,0,1,1h7V38.56A3.906,3.906,0,0,0,20,38a1.0029,1.0029,0,0,1-1-1V23a1.0029,1.0029,0,0,1,1-1,3.9989,3.9989,0,0,0,4-4,1.0029,1.0029,0,0,1,1-1H63a1.0029,1.0029,0,0,1,1,1,3.9989,3.9989,0,0,0,4,4,1.0029,1.0029,0,0,1,1,1V37a1.0029,1.0029,0,0,1-1,1,3.9989,3.9989,0,0,0-4,4,1.0029,1.0029,0,0,1-1,1H36v.38A11.8653,11.8653,0,0,1,42.76,48H73a1.0029,1.0029,0,0,0,1-1V14H14Z" style="fill:#202021"/><path d="M29,81a1,1,0,0,0,1,1H60a1,1,0,0,0,1-1V74H29Z" style="fill:#202021"/></g></svg>