<svg width="800" height="800" viewBox="0 0 800 800" fill="none" xmlns="http://www.w3.org/2000/svg">
<path d="M733.335 406.797V457.5C733.335 587.527 733.335 652.544 694.281 692.937C655.231 733.334 592.375 733.334 466.668 733.334H333.335C207.627 733.334 144.773 733.334 105.72 692.937C66.668 652.544 66.668 587.527 66.668 457.5V406.797C66.668 330.517 66.668 292.376 83.9746 260.758C101.281 229.141 132.9 209.517 196.136 170.271L262.802 128.896C329.648 87.41 363.071 66.667 400.001 66.667C436.931 66.667 470.355 87.41 537.201 128.896L603.868 170.271C667.105 209.517 698.721 229.141 716.028 260.758" stroke="#1C274C" stroke-width="50" stroke-linecap="round"/>
<path d="M500 600H300" stroke="#1C274C" stroke-width="50" stroke-linecap="round"/>
</svg>
