<svg width="800" height="800" viewBox="0 0 800 800" fill="none" xmlns="http://www.w3.org/2000/svg">
<path d="M294.007 152.667H195.074C155.497 152.667 135.693 152.667 120.577 160.369C107.28 167.144 96.4771 177.947 89.7023 191.244C82 206.36 82 226.163 82 265.74V604.94C82 644.517 82 664.297 89.7023 679.412C96.4771 692.708 107.28 703.531 120.577 710.304C135.678 718 155.458 718 194.957 718H534.376C573.875 718 593.627 718 608.728 710.304C622.024 703.531 632.864 692.698 639.638 679.402C647.333 664.3 647.333 644.542 647.333 605.043V506M506 188L294 400V506H400L612 294M506 188L612 82L718 188L612 294M506 188L612 294" stroke="black" stroke-width="66.6667" stroke-linecap="round" stroke-linejoin="round"/>
</svg>
