<svg width="800" height="800" viewBox="0 0 800 800" fill="none" xmlns="http://www.w3.org/2000/svg">
<path d="M544.387 700.806C524.452 700.806 508.29 716.968 508.29 736.903C508.29 756.838 524.452 773 544.387 773V700.806ZM773 496.258C773 476.323 756.838 460.161 736.903 460.161C716.968 460.161 700.806 476.323 700.806 496.258H773ZM255.613 773C275.548 773 291.71 756.838 291.71 736.903C291.71 716.968 275.548 700.806 255.613 700.806V773ZM99.1935 496.258C99.1935 476.323 83.0323 460.161 63.0968 460.161C43.1612 460.161 27 476.323 27 496.258H99.1935ZM255.613 99.1935C275.548 99.1935 291.71 83.0323 291.71 63.0968C291.71 43.1612 275.548 27 255.613 27V99.1935ZM27 303.742C27 323.677 43.1612 339.839 63.0968 339.839C83.0323 339.839 99.1935 323.677 99.1935 303.742H27ZM544.387 27C524.452 27 508.29 43.1612 508.29 63.0968C508.29 83.0323 524.452 99.1935 544.387 99.1935V27ZM700.806 303.742C700.806 323.677 716.968 339.839 736.903 339.839C756.838 339.839 773 323.677 773 303.742H700.806ZM544.387 773C670.649 773 773 670.649 773 544.387H700.806C700.806 630.774 630.774 700.806 544.387 700.806V773ZM773 544.387V496.258H700.806V544.387H773ZM255.613 700.806C169.225 700.806 99.1935 630.774 99.1935 544.387H27C27 670.649 129.354 773 255.613 773V700.806ZM99.1935 544.387V496.258H27V544.387H99.1935ZM255.613 27C129.354 27 27 129.354 27 255.613H99.1935C99.1935 169.225 169.225 99.1935 255.613 99.1935V27ZM27 255.613V303.742H99.1935V255.613H27ZM544.387 99.1935C630.774 99.1935 700.806 169.225 700.806 255.613H773C773 129.354 670.649 27 544.387 27V99.1935ZM700.806 255.613V303.742H773V255.613H700.806Z" fill="black"/>
<path d="M641 400H159" stroke="black" stroke-width="50" stroke-linecap="round" stroke-linejoin="round"/>
</svg>
